<?xml version="1.0" encoding="UTF-8" standalone="no"?>
<svg width="48px" height="48px" viewBox="0 0 48 48" version="1.1" xmlns="http://www.w3.org/2000/svg" xmlns:xlink="http://www.w3.org/1999/xlink">
    <!-- Generator: Sketch 39.1 (31720) - http://www.bohemiancoding.com/sketch -->
    <title>Logo-White</title>
    <desc>Created with Sketch.</desc>
    <defs></defs>
    <g id="Symbols" stroke="none" stroke-width="1" fill="none" fill-rule="evenodd">
        <g id="Logo-White" fill="#FFFFFF">
            <path d="M3.85037838,44.503268 C3.73275617,44.3150317 3.56151464,44.1599135 3.33664865,44.0379085 C3.11178266,43.9159035 2.86789321,43.854902 2.60497297,43.854902 C2.32129588,43.854902 2.06529844,43.9054461 1.83697297,44.0065359 C1.60864751,44.1076258 1.41319,44.2470579 1.25059459,44.4248366 C1.08799919,44.6026153 0.963459892,44.8117635 0.876972973,45.0522876 C0.790486054,45.2928117 0.747243243,45.5525041 0.747243243,45.8313725 C0.747243243,46.110241 0.790486054,46.3681905 0.876972973,46.6052288 C0.963459892,46.842267 1.08626947,47.0496723 1.24540541,47.227451 C1.40454134,47.4052296 1.59826913,47.5446618 1.82659459,47.6457516 C2.05492006,47.7468415 2.3109175,47.7973856 2.59459459,47.7973856 C2.9059475,47.7973856 3.16886379,47.738127 3.38335135,47.6196078 C3.59783891,47.5010887 3.77426958,47.3477134 3.91264865,47.1594771 L4.44194595,47.5568627 C4.23437734,47.8148161 3.98010961,48.0204785 3.67913514,48.1738562 C3.37816066,48.3272339 3.01665076,48.4039216 2.59459459,48.4039216 C2.20021424,48.4039216 1.84389348,48.3394342 1.52562162,48.2104575 C1.20734976,48.0814808 0.935784908,47.9019619 0.710918919,47.6718954 C0.48605293,47.4418289 0.311351974,47.1699362 0.186810811,46.8562092 C0.0622696476,46.5424821 0,46.2008733 0,45.8313725 C0,45.4618718 0.0622696476,45.120263 0.186810811,44.8065359 C0.311351974,44.4928089 0.48605293,44.2209162 0.710918919,43.9908497 C0.935784908,43.7607832 1.20734976,43.5812643 1.52562162,43.4522876 C1.84389348,43.3233109 2.20021424,43.2588235 2.59459459,43.2588235 C2.91978541,43.2588235 3.25016048,43.3302825 3.58572973,43.4732026 C3.92129898,43.6161227 4.19286383,43.8270139 4.40043243,44.1058824 L3.85037838,44.503268 Z M6.1907027,44.4614379 C6.1907027,44.3289754 6.18724328,44.158171 6.18032432,43.9490196 C6.17340537,43.7398682 6.1630271,43.5516348 6.14918919,43.3843137 L6.82378378,43.3843137 C6.83762169,43.5167763 6.84799997,43.66318 6.85491892,43.8235294 C6.86183787,43.9838788 6.8652973,44.1163393 6.8652973,44.220915 L6.88605405,44.220915 C7.02443312,43.9350748 7.23199862,43.7032689 7.50875676,43.5254902 C7.7855149,43.3477115 8.09686314,43.2588235 8.44281081,43.2588235 C8.53275721,43.2588235 8.61405369,43.2623093 8.6867027,43.269281 C8.75935171,43.2762528 8.83372935,43.290196 8.90983784,43.3111111 L8.81643243,43.9803922 C8.77491871,43.9664487 8.70573021,43.9525055 8.60886486,43.9385621 C8.51199952,43.9246187 8.41513562,43.9176471 8.31827027,43.9176471 C8.13145853,43.9176471 7.95156843,43.9525051 7.77859459,44.0222222 C7.60562076,44.0919393 7.45513578,44.2017422 7.32713514,44.351634 C7.1991345,44.5015258 7.09535175,44.693245 7.01578378,44.9267974 C6.93621582,45.1603498 6.89643243,45.440957 6.89643243,45.7686275 L6.89643243,48.2784314 L6.1907027,48.2784314 L6.1907027,44.4614379 Z M14.0938378,45.454902 C14.073081,44.9947689 13.9260554,44.6130734 13.6527568,44.3098039 C13.3794581,44.0065344 12.9902728,43.854902 12.4851892,43.854902 C12.2499448,43.854902 12.032001,43.8984745 11.8313514,43.9856209 C11.6307017,44.0727673 11.454271,44.1912847 11.3020541,44.3411765 C11.1498371,44.4910683 11.0287572,44.6618727 10.9388108,44.8535948 C10.8488644,45.0453169 10.796973,45.2457506 10.7831351,45.454902 L14.0938378,45.454902 Z M14.8099459,45.6849673 L14.8099459,45.8418301 C14.8099459,45.8976038 14.8064865,45.9568624 14.7995676,46.0196078 L10.7727568,46.0196078 C10.7796757,46.2636178 10.8281077,46.4936808 10.9180541,46.7098039 C11.0080004,46.925927 11.1325397,47.1141604 11.2916757,47.2745098 C11.4508116,47.4348592 11.6376205,47.562091 11.8521081,47.6562092 C12.0665957,47.7503273 12.2983771,47.7973856 12.5474595,47.7973856 C12.914164,47.7973856 13.2307014,47.7119834 13.4970811,47.5411765 C13.7634608,47.3703695 13.9658371,47.1734216 14.1042162,46.9503268 L14.6335135,47.3686275 C14.3429175,47.7381282 14.0229207,48.0030493 13.6735135,48.1633987 C13.3241064,48.3237481 12.9487588,48.4039216 12.5474595,48.4039216 C12.1876739,48.4039216 11.8538394,48.3394342 11.5459459,48.2104575 C11.2380525,48.0814808 10.9734065,47.9019619 10.752,47.6718954 C10.5305935,47.4418289 10.3558925,47.1699362 10.2278919,46.8562092 C10.0998913,46.5424821 10.0358919,46.2008733 10.0358919,45.8313725 C10.0358919,45.4618718 10.0981615,45.120263 10.2227027,44.8065359 C10.3472439,44.4928089 10.5202151,44.2209162 10.7416216,43.9908497 C10.9630281,43.7607832 11.222485,43.5812643 11.52,43.4522876 C11.817515,43.3233109 12.1392415,43.2588235 12.4851892,43.2588235 C12.8657316,43.2588235 13.2012958,43.3233109 13.4918919,43.4522876 C13.7824879,43.5812643 14.0246477,43.7555545 14.2183784,43.9751634 C14.4121091,44.1947723 14.5591346,44.4509789 14.6594595,44.7437908 C14.7597843,45.0366028 14.8099459,45.3503251 14.8099459,45.6849673 L14.8099459,45.6849673 Z M19.9731892,45.1202614 C19.9731892,44.694987 19.8624876,44.3777788 19.6410811,44.1686275 C19.4196746,43.9594761 19.0979481,43.854902 18.6758919,43.854902 C18.3852958,43.854902 18.1154607,43.907189 17.8663784,44.0117647 C17.6172961,44.1163404 17.4062711,44.2557725 17.2332973,44.4300654 L16.8389189,43.9594771 C17.0395686,43.7572975 17.3042146,43.5899789 17.6328649,43.4575163 C17.9615152,43.3250538 18.3334033,43.2588235 18.7485405,43.2588235 C19.0114608,43.2588235 19.2570799,43.2954245 19.4854054,43.3686275 C19.7137309,43.4418304 19.9143775,43.5516333 20.0873514,43.6980392 C20.2603252,43.8444452 20.3952428,44.0291928 20.4921081,44.2522876 C20.5889735,44.4753824 20.6374054,44.7368177 20.6374054,45.0366013 L20.6374054,47.1803922 C20.6374054,47.3686284 20.6443243,47.5638334 20.6581622,47.7660131 C20.6720001,47.9681927 20.6927566,48.1389971 20.7204324,48.2784314 L20.0873514,48.2784314 C20.0665945,48.1599123 20.0492974,48.0309375 20.0354595,47.8915033 C20.0216216,47.752069 20.0147027,47.6161227 20.0147027,47.4836601 L19.9939459,47.4836601 C19.7725394,47.8113306 19.5217311,48.0466224 19.2415135,48.1895425 C18.9612959,48.3324626 18.624002,48.4039216 18.2296216,48.4039216 C18.0428099,48.4039216 17.8508118,48.377778 17.6536216,48.3254902 C17.4564314,48.2732024 17.2765414,48.1878002 17.1139459,48.069281 C16.9513505,47.9507619 16.816433,47.7973866 16.7091892,47.6091503 C16.6019454,47.4209141 16.5483243,47.190851 16.5483243,46.9189542 C16.5483243,46.5424818 16.6434585,46.2444455 16.8337297,46.0248366 C17.024001,45.8052277 17.2782687,45.6413949 17.5965405,45.5333333 C17.9148124,45.4252718 18.2797817,45.3555557 18.6914595,45.324183 C19.1031372,45.2928103 19.5303762,45.2771242 19.9731892,45.2771242 L19.9731892,45.1202614 Z M19.7656216,45.8313725 C19.4750256,45.8313725 19.1827042,45.8435729 18.8886486,45.8679739 C18.5945931,45.8923748 18.3282174,45.9411761 18.0895135,46.0143791 C17.8508096,46.0875821 17.6553521,46.1938991 17.5031351,46.3333333 C17.3509182,46.4727676 17.2748108,46.6575152 17.2748108,46.8875817 C17.2748108,47.0618745 17.3076753,47.2082783 17.3734054,47.3267974 C17.4391355,47.4453165 17.5273508,47.5411761 17.6380541,47.6143791 C17.7487573,47.6875821 17.8715669,47.7398691 18.0064865,47.7712418 C18.1414061,47.8026145 18.2780534,47.8183007 18.4164324,47.8183007 C18.6655148,47.8183007 18.886918,47.7747281 19.0806486,47.6875817 C19.2743793,47.6004353 19.4369723,47.481918 19.5684324,47.3320261 C19.6998925,47.1821343 19.8002159,47.009587 19.8694054,46.8143791 C19.9385949,46.6191711 19.9731892,46.4135087 19.9731892,46.1973856 L19.9731892,45.8313725 L19.7656216,45.8313725 Z M25.1883243,43.9803922 L23.8183784,43.9803922 L23.8183784,46.8352941 C23.8183784,47.0165586 23.8356755,47.1664482 23.8702703,47.2849673 C23.904865,47.4034864 23.9550267,47.4958602 24.0207568,47.5620915 C24.0864868,47.6283228 24.1643239,47.6736382 24.2542703,47.6980392 C24.3442167,47.7224402 24.4410806,47.7346405 24.5448649,47.7346405 C24.6417302,47.7346405 24.7437832,47.7206973 24.851027,47.6928105 C24.9582708,47.6649236 25.0603238,47.6265798 25.1571892,47.5777778 L25.1883243,48.1947712 C25.0637832,48.2435732 24.9340547,48.2801742 24.7991351,48.3045752 C24.6642155,48.3289762 24.51719,48.3411765 24.3580541,48.3411765 C24.2265939,48.3411765 24.0882169,48.3237475 23.9429189,48.2888889 C23.7976209,48.2540303 23.6627033,48.1878001 23.5381622,48.0901961 C23.413621,47.9925921 23.311568,47.8601316 23.232,47.6928105 C23.152432,47.5254894 23.1126486,47.3058837 23.1126486,47.0339869 L23.1126486,43.9803922 L22.1059459,43.9803922 L22.1059459,43.3843137 L23.1126486,43.3843137 L23.1126486,42.0039216 L23.8183784,42.0039216 L23.8183784,43.3843137 L25.1883243,43.3843137 L25.1883243,43.9803922 Z M27.6531892,48.2784314 L26.9474595,48.2784314 L26.9474595,43.3843137 L27.6531892,43.3843137 L27.6531892,48.2784314 Z M27.7984865,41.5019608 C27.7984865,41.6483667 27.7465951,41.768627 27.6428108,41.8627451 C27.5390265,41.9568632 27.4248655,42.0039216 27.3003243,42.0039216 C27.1757832,42.0039216 27.0616221,41.9568632 26.9578378,41.8627451 C26.8540535,41.768627 26.8021622,41.6483667 26.8021622,41.5019608 C26.8021622,41.3555548 26.8540535,41.2352946 26.9578378,41.1411765 C27.0616221,41.0470584 27.1757832,41 27.3003243,41 C27.4248655,41 27.5390265,41.0470584 27.6428108,41.1411765 C27.7465951,41.2352946 27.7984865,41.3555548 27.7984865,41.5019608 L27.7984865,41.5019608 Z M31.3219459,45.7477124 L29.5264865,43.3843137 L30.4294054,43.3843137 L31.7578378,45.2457516 L33.0862703,43.3843137 L33.9372973,43.3843137 L32.172973,45.7163399 L34.1033514,48.2784314 L33.1900541,48.2784314 L31.7474595,46.2392157 L30.2633514,48.2784314 L29.4123243,48.2784314 L31.3219459,45.7477124 Z M36.8276757,47.7764706 C36.8276757,47.9228765 36.7757843,48.0535942 36.672,48.1686275 C36.5682157,48.2836607 36.4332981,48.3411765 36.2672432,48.3411765 C36.1011884,48.3411765 35.9662708,48.2836607 35.8624865,48.1686275 C35.7587022,48.0535942 35.7068108,47.9228765 35.7068108,47.7764706 C35.7068108,47.6300646 35.7587022,47.499347 35.8624865,47.3843137 C35.9662708,47.2692805 36.1011884,47.2117647 36.2672432,47.2117647 C36.4332981,47.2117647 36.5682157,47.2692805 36.672,47.3843137 C36.7757843,47.499347 36.8276757,47.6300646 36.8276757,47.7764706 L36.8276757,47.7764706 Z M39.9152432,48.2784314 L39.2095135,48.2784314 L39.2095135,43.3843137 L39.9152432,43.3843137 L39.9152432,48.2784314 Z M40.0605405,41.5019608 C40.0605405,41.6483667 40.0086492,41.768627 39.9048649,41.8627451 C39.8010806,41.9568632 39.6869195,42.0039216 39.5623784,42.0039216 C39.4378372,42.0039216 39.3236762,41.9568632 39.2198919,41.8627451 C39.1161076,41.768627 39.0642162,41.6483667 39.0642162,41.5019608 C39.0642162,41.3555548 39.1161076,41.2352946 39.2198919,41.1411765 C39.3236762,41.0470584 39.4378372,41 39.5623784,41 C39.6869195,41 39.8010806,41.0470584 39.9048649,41.1411765 C40.0086492,41.2352946 40.0605405,41.3555548 40.0605405,41.5019608 L40.0605405,41.5019608 Z M47.2683243,45.8313725 C47.2683243,46.2008733 47.204325,46.5424821 47.0763243,46.8562092 C46.9483237,47.1699362 46.7701633,47.4418289 46.5418378,47.6718954 C46.3135124,47.9019619 46.0402178,48.0814808 45.7219459,48.2104575 C45.4036741,48.3394342 45.0542722,48.4039216 44.6737297,48.4039216 C44.3001062,48.4039216 43.9541638,48.3394342 43.6358919,48.2104575 C43.31762,48.0814808 43.0443255,47.9019619 42.816,47.6718954 C42.5876745,47.4418289 42.4095142,47.1699362 42.2815135,46.8562092 C42.1535129,46.5424821 42.0895135,46.2008733 42.0895135,45.8313725 C42.0895135,45.4618718 42.1535129,45.120263 42.2815135,44.8065359 C42.4095142,44.4928089 42.5876745,44.2209162 42.816,43.9908497 C43.0443255,43.7607832 43.31762,43.5812643 43.6358919,43.4522876 C43.9541638,43.3233109 44.3001062,43.2588235 44.6737297,43.2588235 C45.0542722,43.2588235 45.4036741,43.3233109 45.7219459,43.4522876 C46.0402178,43.5812643 46.3135124,43.7607832 46.5418378,43.9908497 C46.7701633,44.2209162 46.9483237,44.4928089 47.0763243,44.8065359 C47.204325,45.120263 47.2683243,45.4618718 47.2683243,45.8313725 L47.2683243,45.8313725 Z M46.5210811,45.8313725 C46.5210811,45.5594758 46.4778383,45.3032692 46.3913514,45.0627451 C46.3048644,44.822221 46.1820548,44.6130728 46.0229189,44.4352941 C45.863783,44.2575155 45.6700552,44.1163404 45.4417297,44.0117647 C45.2134043,43.907189 44.9574068,43.854902 44.6737297,43.854902 C44.3900526,43.854902 44.1357849,43.907189 43.9109189,44.0117647 C43.6860529,44.1163404 43.4940548,44.2575155 43.3349189,44.4352941 C43.175783,44.6130728 43.0529734,44.822221 42.9664865,45.0627451 C42.8799996,45.3032692 42.8367568,45.5594758 42.8367568,45.8313725 C42.8367568,46.1032693 42.8799996,46.3594759 42.9664865,46.6 C43.0529734,46.8405241 43.175783,47.0496723 43.3349189,47.227451 C43.4940548,47.4052296 43.6860529,47.5446618 43.9109189,47.6457516 C44.1357849,47.7468415 44.3900526,47.7973856 44.6737297,47.7973856 C44.9574068,47.7973856 45.2134043,47.7468415 45.4417297,47.6457516 C45.6700552,47.5446618 45.863783,47.4052296 46.0229189,47.227451 C46.1820548,47.0496723 46.3048644,46.8405241 46.3913514,46.6 C46.4778383,46.3594759 46.5210811,46.1032693 46.5210811,45.8313725 L46.5210811,45.8313725 Z" id="creatix.io"></path>
            <g id="creatix-new-logo-v1" transform="translate(5.837838, 0.000000)">
                <g id="Group">
                    <g id="Layer_2" transform="translate(-0.000000, 0.000000)">
                        <path d="M18.1421236,29.5690759 C11.9549512,29.5690759 6.93893725,24.5148135 6.93893725,18.2804622 C6.93893725,12.0461109 11.9549512,6.99184854 18.1421236,6.99184854 C22.6985959,6.99184854 26.6199235,9.73302246 28.3702886,13.6678414 L34.6912875,10.8175056 C31.8589815,4.45044783 25.5146161,0.0154824243 18.1421236,0.0154824243 C8.13133807,0.0154824243 0.01536526,8.19334174 0.01536526,18.2804622 C0.01536526,28.3675827 8.13133807,36.545442 18.1421236,36.545442 C25.5146161,36.545442 31.8589815,32.1104766 34.6912875,25.7434188 L28.3702886,22.8931545 C26.6199235,26.827902 22.6985251,29.5690759 18.1421236,29.5690759 L18.1421236,29.5690759 Z" id="Shape"></path>
                    </g>
                </g>
            </g>
        </g>
    </g>
</svg>